<?xml version="1.0" encoding="utf-8"?>
<!DOCTYPE svg PUBLIC "-//W3C//DTD SVG 20010904//EN" "http://www.w3.org/TR/2001/REC-SVG-20010904/DTD/svg10.dtd">
<svg version="1.0" xmlns="http://www.w3.org/2000/svg" width="48px" height="51px" viewBox="0 0 48 51" preserveAspectRatio="xMidYMid meet">
 <g fill="#000000">
  <path d="M2.45 43.35 c-0.75 -0.60 -1.60 -1.60 -1.90 -2.20 -0.70 -1.35 -0.80 -28.15 -0.10 -28.15 0.25 0 0.60 -0.40 0.75 -0.90 0.15 -0.50 0.95 -1.25 1.75 -1.75 2.05 -1.20 11.50 -1.25 13.35 -0.05 1.40 0.95 2.70 3.15 2.70 4.70 0 0.95 0.25 1 7.50 1 5.65 0 7.90 0.20 8.95 0.75 1.85 0.95 3.15 3.75 2.95 6.40 -0.15 2.10 -0.15 2.10 3.45 2.35 2.30 0.15 3.85 0.50 4.30 1 1 1.10 1.90 3.50 1.35 3.50 -0.30 0 -0.50 0.35 -0.50 0.80 0 1.35 -8.35 11.45 -10.45 12.60 -1.85 1.05 -2.45 1.10 -17.35 1.10 -15.20 -0.05 -15.45 -0.05 -16.75 -1.15z m32.25 -2.45 c1.50 -0.65 9.40 -10.10 9.50 -11.35 0.05 -0.70 -1.35 -0.80 -14.45 -0.95 -9.60 -0.05 -14.95 0.05 -15.80 0.45 -0.75 0.25 -3.10 2.70 -5.25 5.30 -4.85 5.95 -5 6.15 -4.15 6.70 1.10 0.70 28.65 0.55 30.15 -0.15z m-26.55 -10.60 c4 -4.65 3.50 -4.50 16.10 -4.80 11 -0.25 11 -0.25 11.15 -2.35 0.10 -1.60 -0.10 -2.35 -0.85 -3.10 -0.95 -0.95 -1.65 -1.05 -8.85 -1.05 -4.40 0 -8.20 -0.20 -8.75 -0.50 -0.70 -0.40 -0.95 -1.05 -0.95 -2.50 0 -2.85 -1.20 -3.50 -6.50 -3.50 -6.85 0 -6.50 -0.65 -6.50 12.65 0.05 12.55 -0.60 11.95 5.15 5.15z"/>
 </g>
</svg>