<?xml version="1.0" standalone="no"?>
<!DOCTYPE svg PUBLIC "-//W3C//DTD SVG 1.1//EN" "http://www.w3.org/Graphics/SVG/1.1/DTD/svg11.dtd" >
<svg xmlns="http://www.w3.org/2000/svg" xmlns:xlink="http://www.w3.org/1999/xlink" version="1.1" viewBox="-10 0 468 512">
   <path fill="currentColor"
d="M400 32c26.5 0 48 21.5 48 48v352c0 26.5 -21.5 48 -48 48h-352c-26.5 0 -48 -21.5 -48 -48v-352c0 -26.5 21.5 -48 48 -48h352zM277.3 415.7c66 -22 110.8 -84.9004 110.7 -158.3c0 -91.8008 -74.4004 -161.5 -166.2 -161.5s-162 69.6992 -162 161.5
c0 73.3994 46.2002 136.199 112.2 158.3c8.5 1.5 11.5 -3.7002 11.5 -8c0 -4.10059 -0.200195 -26.7002 -0.200195 -40.6006c0 0 -46.3994 10 -56.0996 -19.6992c0 0 -7.60059 -19.2002 -18.4004 -24.2002c0 0 -15.0996 -10.4004 1.10059 -10.2002
c0 0 16.3994 1.2998 25.5 17.0996c14.5 25.6006 38.7998 18.2002 48.2998 13.9004c1.5 -10.5996 5.7998 -18 10.5996 -22.2998c-37 -4.10059 -74.2998 -9.5 -74.2998 -73.1006c0 -18.1992 5 -27.2998 15.5996 -39c-1.7998 -4.39941 -7.39941 -22.0996 1.7002 -45
c13.9004 -4.2998 45.7002 17.9004 45.7002 17.9004c13.2002 -3.7002 27.5 -5.59961 41.5996 -5.59961c14.1006 0 28.4004 1.89941 41.6006 5.59961c0 0 31.7998 -22.2002 45.7002 -17.9004c9.09961 23 3.39941 40.7002 1.69922 45
c10.6006 11.7002 17.1006 20.8008 17.1006 39c0 63.9004 -39 69 -76 73.1006c6.09961 5.2002 11.2998 15.0996 11.2998 30.7002c0 22.2998 -0.200195 49.8994 -0.200195 55.2998c0 4.2998 3.10059 9.5 11.5 8v0zM179.2 354.6
c-1.90039 0.400391 -3.7002 -0.399414 -3.90039 -1.69922c-0.200195 -1.5 1.10059 -2.80078 3 -3.2002c1.90039 -0.200195 3.7002 0.599609 3.90039 1.89941c0.299805 1.30078 -1 2.60059 -3 3v0zM169.7 353.7c0 -1.5 -1.7998 -2.60059 -3.7002 -2.40039
c-2 0 -3.5 1.10059 -3.5 2.40039c0 1.5 1.5 2.59961 3.7002 2.39941c2 0 3.5 -1.09961 3.5 -2.39941zM156 352.6c-0.400391 1.30078 -2.40039 1.90039 -4.09961 1.30078c-1.90039 -0.400391 -3.2002 -1.90039 -2.80078 -3.2002
c0.400391 -1.2998 2.40039 -1.90039 4.10059 -1.5c2 0.599609 3.2998 2.09961 2.7998 3.39941v0zM143.7 347.2c0.899414 -0.799805 0.399414 -2.7998 -0.900391 -4.10059c-1.5 -1.5 -3.39941 -1.69922 -4.2998 -0.599609c-1 0.900391 -0.599609 2.7998 0.900391 4.09961
c1.5 1.5 3.39941 1.7002 4.2998 0.600586v0zM134.6 338.1c1.10059 -0.799805 1.10059 -2.59961 0 -4.09961c-0.899414 -1.5 -2.59961 -2.2002 -3.69922 -1.2998c-1.10059 0.700195 -1.10059 2.39941 0 3.89941c1.09961 1.5 2.7998 2.10059 3.69922 1.5zM128.1 328.4
c0.900391 -0.700195 0.700195 -2.2002 -0.399414 -3.5c-1.10059 -1 -2.60059 -1.5 -3.5 -0.600586c-0.900391 0.700195 -0.700195 2.2002 0.399414 3.5c1.10059 1 2.60059 1.5 3.5 0.600586zM121.4 321c0.399414 -0.799805 -0.200195 -1.90039 -1.5 -2.59961
c-1.30078 -0.5 -2.40039 -0.200195 -2.80078 0.399414c-0.399414 0.900391 0.200195 2 1.5 2.60059c1.10059 0.699219 2.40039 0.5 2.80078 -0.400391v0z" />
</svg>
