<?xml version="1.0" standalone="no"?>
<!DOCTYPE svg PUBLIC "-//W3C//DTD SVG 1.1//EN" "http://www.w3.org/Graphics/SVG/1.1/DTD/svg11.dtd" >
<svg xmlns="http://www.w3.org/2000/svg" xmlns:xlink="http://www.w3.org/1999/xlink" version="1.1" viewBox="-10 0 668 1024">
   <path fill="currentColor"
d="M614.286 685.714c0 4.95312 -1.90527 9.33398 -5.71387 13.1436l-28.5713 28.5703c-3.80957 3.80957 -8.19043 5.71387 -13.1426 5.71387c-4.95312 0 -9.33398 -1.9043 -13.1436 -5.71387l-224.571 -224.57l-224.57 224.57
c-3.80957 3.80957 -8.19043 5.71387 -13.1436 5.71387c-4.95215 0 -9.33301 -1.9043 -13.1426 -5.71387l-28.5713 -28.5703c-3.80957 -3.80957 -5.71387 -8.19043 -5.71387 -13.1436c0 -4.95215 1.9043 -9.33398 5.71387 -13.1426l266.286 -266.286
c3.80957 -3.80957 8.19043 -5.71387 13.1426 -5.71387c4.95312 0 9.33398 1.9043 13.1436 5.71387l266.286 266.286c3.80957 3.80859 5.71387 8.19043 5.71387 13.1426h-0.00195312z" />
</svg>
