<?xml version="1.0" encoding="UTF-8" standalone="no"?>
<svg
   xmlns:dc="http://purl.org/dc/elements/1.1/"
   xmlns:cc="http://creativecommons.org/ns#"
   xmlns:rdf="http://www.w3.org/1999/02/22-rdf-syntax-ns#"
   xmlns:svg="http://www.w3.org/2000/svg"
   xmlns="http://www.w3.org/2000/svg"
   xmlns:sodipodi="http://sodipodi.sourceforge.net/DTD/sodipodi-0.dtd"
   xmlns:inkscape="http://www.inkscape.org/namespaces/inkscape"
   version="1.0"
   width="388.50824pt"
   height="488.10086pt"
   viewBox="0 0 388.50824 488.10086"
   preserveAspectRatio="xMidYMid meet"
   id="svg8"
   sodipodi:docname="smartphone.svg"
   inkscape:version="1.0.2 (e86c870879, 2021-01-15)">
  <defs
     id="defs12" />
  <sodipodi:namedview
     pagecolor="#ffffff"
     bordercolor="#666666"
     borderopacity="1"
     objecttolerance="10"
     gridtolerance="10"
     guidetolerance="10"
     inkscape:pageopacity="0"
     inkscape:pageshadow="2"
     inkscape:window-width="2556"
     inkscape:window-height="1384"
     id="namedview10"
     showgrid="false"
     inkscape:zoom="1.0149823"
     inkscape:cx="395.46568"
     inkscape:cy="392.55069"
     inkscape:window-x="5120"
     inkscape:window-y="26"
     inkscape:window-maximized="0"
     inkscape:current-layer="svg8"
     fit-margin-top="0"
     fit-margin-left="0"
     fit-margin-right="0"
     fit-margin-bottom="0" />
  <metadata
     id="metadata2">
Created by potrace 1.10, written by Peter Selinger 2001-2011
<rdf:RDF>
  <cc:Work
     rdf:about="">
    <dc:format>image/svg+xml</dc:format>
    <dc:type
       rdf:resource="http://purl.org/dc/dcmitype/StillImage" />
    <dc:title></dc:title>
  </cc:Work>
</rdf:RDF>
</metadata>
  <g
     transform="matrix(0.1,0,0,-0.1,-1.9917817,707.10085)"
     fill="#000000"
     stroke="none"
     id="g6"
     style="opacity:1">
    <path
       d="M 456,7054 C 308,7018 147,6891 83,6759 15,6617 20,6623.0915 20,3547 c 0,-663.7796 3,-866 11,-904 40,-193 197,-366 391,-429 l 73,-24 h 1465 1465 l 72,23 c 86,27 207,105 263,170 52,61 105,162 127,243 17,60 18,373.4189 18,924 v 3035 l -27,80 c -67,197 -226,344 -420,390 -92,22 -2912,21 -3002,-1 z m 2979,-529 25,-24 V 3733 c 0,-445.8116 -3,-596 -13,-609 -7,-9 -22,-21 -34,-27 -16,-9 -385.0585,-23.1998 -1458,-12 H 518 l -29,29 -29,29 v 582 c 0,2076 3,2762 12,2778 6,12 18,27 27,34 12,10 342,12 1464,13 H 3411 Z M 2050,2825 c 22,-11 52,-39 67,-62 39,-59 40,-147 1,-205 -76,-115 -252,-108 -320,12 -28,50 -29,125 -3,179 41,86 164,122 255,76 z"
       id="path4"
       sodipodi:nodetypes="ccsccccccccscccccccccscccsccccccccccc" />
  </g>
</svg>
