<?xml version="1.0" encoding="utf-8"?>
<!DOCTYPE svg PUBLIC "-//W3C//DTD SVG 20010904//EN" "http://www.w3.org/TR/2001/REC-SVG-20010904/DTD/svg10.dtd">
<svg version="1.0" xmlns="http://www.w3.org/2000/svg" width="41px" height="96px" viewBox="0 0 41 96" preserveAspectRatio="xMidYMid meet">
 <g fill="#000000">
  <path d="M0.95 95.40 c-0.75 -11.20 5.15 -20.20 17.50 -26.65 5.20 -2.70 10.55 -6.85 10.55 -8.20 0 -0.60 -16.55 -0.80 -17.20 -0.20 -0.15 0.20 0.70 1.40 1.95 2.65 2.30 2.35 2.30 2.35 -0.80 4.15 -1.70 1 -3.30 1.85 -3.50 1.85 -1.60 0 -6.35 -7.30 -7.70 -11.85 -1.15 -3.75 -1.05 -15.10 0.15 -18.75 2.35 -7.10 8.20 -13.45 15.55 -17 4.70 -2.25 6.80 -3.65 9.70 -6.35 3.10 -2.95 2.85 -3.05 -6.55 -3.05 -4.65 0 -8.60 0.15 -8.80 0.35 -0.15 0.20 0.70 1.40 1.95 2.65 2.30 2.35 2.30 2.35 -0.35 4.05 -1.45 0.90 -2.95 1.85 -3.30 2.10 -1 0.65 -4.35 -3.35 -6.70 -7.95 -1.55 -3.20 -2.05 -4.85 -2.25 -7.50 -0.15 -1.90 -0.50 -3.55 -0.70 -3.70 -0.25 -0.15 0 -0.70 0.55 -1.15 0.55 -0.45 1 -0.60 1 -0.35 0 0.75 4.85 0.60 5.15 -0.10 0.10 -0.35 0.40 -0.05 0.60 0.75 0.35 1.35 0.35 1.35 12.80 1.35 11.50 0 12.45 -0.05 12.45 -0.85 0 -0.80 0.40 -0.90 3 -0.75 2.25 0.15 3 0 3 -0.50 0 -0.50 0.15 -0.45 0.50 0.10 1.15 1.80 -0.05 9.15 -2.15 13.10 -2.85 5.35 -7.85 10.10 -13.85 13.10 -5.80 2.85 -7.90 4.25 -10.25 6.85 -1.95 2.20 -1.95 2.20 6.70 2.35 4.80 0.05 8.80 0 8.95 -0.15 0.15 -0.15 -0.75 -1.35 -2.05 -2.65 -2.35 -2.40 -2.35 -2.40 -0.25 -3.50 1.20 -0.55 2.80 -1.45 3.55 -1.95 1.45 -0.90 1.45 -0.90 3.40 1.35 2.35 2.65 4.70 7.20 5.70 11 0.45 1.60 0.75 5.05 0.75 8.35 0 4.55 -0.20 6.20 -1.20 9.10 -2.85 8.40 -7.85 13.70 -17.10 18.15 -4 1.90 -8.65 5.50 -9.75 7.45 -0.45 0.90 -0.15 0.95 8.30 0.95 4.80 0 8.75 -0.20 8.75 -0.40 0 -0.25 -1.05 -1.45 -2.35 -2.75 -1.30 -1.30 -2.10 -2.35 -1.85 -2.35 0.25 0 1.65 -0.80 3.15 -1.75 1.45 -0.95 2.95 -1.75 3.35 -1.75 0.35 0 1.60 1.20 2.75 2.65 3.60 4.50 5.95 10.65 5.95 15.75 0 2.60 0 2.60 -3.50 2.60 -3.15 0 -3.50 -0.10 -3.50 -1 0 -0.95 -0.35 -1 -12.45 -1 -12.05 0 -12.50 0.05 -12.80 1 -0.25 0.85 -0.75 1 -3.55 1 -2.20 0 -3.20 -0.20 -3.25 -0.60z m31.55 -4.75 c0 -0.20 -0.25 -1.10 -0.60 -2 -0.60 -1.65 -0.60 -1.65 -11.50 -1.65 -10.90 0 -10.90 0 -11.40 1.30 -1.10 2.80 -1.50 2.70 11.50 2.70 6.60 0 12 -0.15 12 -0.35z m-1.75 -33.55 c0.55 -0.40 1.75 -2.85 1.75 -3.60 0 -0.30 -4.75 -0.50 -12.05 -0.50 -12.05 0 -12.05 0 -11.75 1.60 0.55 2.85 0.50 2.80 11.45 2.85 5.55 0 10.35 -0.15 10.60 -0.35z m2.15 -9 c0.15 -2.10 0.15 -2.10 -12.50 -2 -12.65 0.15 -12.65 0.15 -12.80 1.55 -0.35 2.95 -0.75 2.90 12.75 2.75 12.40 -0.15 12.40 -0.15 12.55 -2.30z m-0.60 -5.90 c-0.15 -0.45 -0.45 -1.35 -0.60 -2 -0.30 -1.20 -0.30 -1.20 -11.25 -1.20 -10.95 0 -10.95 0 -11.45 1.30 -1.20 3.10 -1.70 2.95 11.55 2.80 10.65 -0.10 12 -0.20 11.75 -0.90z m-1.55 -33.05 c0.55 -0.45 1.75 -2.90 1.75 -3.65 0 -0.30 -4.75 -0.50 -12.05 -0.50 -12.05 0 -12.05 0 -11.75 1.60 0.55 2.80 0.50 2.80 11.45 2.85 5.55 0.05 10.35 -0.10 10.60 -0.30z"/>
 </g>
</svg>