<?xml version="1.0" encoding="UTF-8" standalone="no"?>
<svg
   xmlns:dc="http://purl.org/dc/elements/1.1/"
   xmlns:cc="http://creativecommons.org/ns#"
   xmlns:rdf="http://www.w3.org/1999/02/22-rdf-syntax-ns#"
   xmlns:svg="http://www.w3.org/2000/svg"
   xmlns="http://www.w3.org/2000/svg"
   xmlns:sodipodi="http://sodipodi.sourceforge.net/DTD/sodipodi-0.dtd"
   xmlns:inkscape="http://www.inkscape.org/namespaces/inkscape"
   version="1.0"
   width="43.344193"
   height="32.5"
   viewBox="0 0 43.344193 32.5"
   preserveAspectRatio="xMidYMid meet"
   id="svg10"
   sodipodi:docname="04-ico-io.svg"
   inkscape:version="1.0.2 (e86c870879, 2021-01-15)">
  <metadata
     id="metadata16">
    <rdf:RDF>
      <cc:Work
         rdf:about="">
        <dc:format>image/svg+xml</dc:format>
        <dc:type
           rdf:resource="http://purl.org/dc/dcmitype/StillImage" />
        <dc:title></dc:title>
      </cc:Work>
    </rdf:RDF>
  </metadata>
  <defs
     id="defs14" />
  <sodipodi:namedview
     pagecolor="#ffffff"
     bordercolor="#666666"
     borderopacity="1"
     objecttolerance="10"
     gridtolerance="10"
     guidetolerance="10"
     inkscape:pageopacity="0"
     inkscape:pageshadow="2"
     inkscape:window-width="2556"
     inkscape:window-height="1384"
     id="namedview12"
     showgrid="false"
     fit-margin-top="0"
     fit-margin-left="0"
     fit-margin-right="0"
     fit-margin-bottom="0"
     inkscape:zoom="18.666667"
     inkscape:cx="4.1821152"
     inkscape:cy="21"
     inkscape:window-x="0"
     inkscape:window-y="26"
     inkscape:window-maximized="0"
     inkscape:current-layer="svg10" />
  <g
     fill="#000000"
     id="g8"
     transform="translate(-3.1303848,-6)">
    <path
       d="M 14,38.15 C 14,37.6 22.5,8.35 23,7.15 23.4,6.2 23.85,6 25.7,6 c 1.25,0 2.35,0.2 2.5,0.4 0.15,0.25 -1.75,7.25 -4.25,15.65 -2.45,8.35 -4.45,15.45 -4.45,15.8 0,0.45 -0.85,0.65 -2.75,0.65 -1.5,0 -2.75,-0.15 -2.75,-0.35 z"
       id="path2" />
    <path
       d="m 32.75,30.35 c -3,-1.7 -4.25,-3.9 -4.25,-7.45 0,-1.6 0.3,-3.55 0.7,-4.3 2.95,-5.65 10.4,-6.7 15.05,-2.1 1.85,1.85 2,2.15 2.15,5.5 0.2,3.15 0.05,3.75 -1.1,5.5 -2.55,3.9 -8.35,5.2 -12.55,2.85 z m 7.5,-3.5 c 2.7,-2.3 1.9,-8.05 -1.3,-9.35 -3.95,-1.65 -7.45,3.7 -5.2,8 1.4,2.7 4.25,3.3 6.5,1.35 z"
       id="path4" />
    <path
       d="m 3.25,29.9 c -0.1,-0.35 -0.15,-4.6 -0.1,-9.4 0.1,-8.75 0.1,-8.75 3.25,-8.75 3.15,0 3.15,0 3.15,9.25 0.05,9.25 0.05,9.25 -3,9.4 C 4.4,30.5 3.4,30.35 3.25,29.9 Z"
       id="path6" />
  </g>
</svg>
