<?xml version="1.0" standalone="no"?>
<!DOCTYPE svg PUBLIC "-//W3C//DTD SVG 1.1//EN" "http://www.w3.org/Graphics/SVG/1.1/DTD/svg11.dtd" >
<svg xmlns="http://www.w3.org/2000/svg" xmlns:xlink="http://www.w3.org/1999/xlink" version="1.1" viewBox="-10 0 586 512">
   <path fill="currentColor"
d="M550.5 241c6.69629 1.33887 11.7861 7.5 11.7881 14.7324c0 7.5 -5.3584 13.6602 -12.3223 15l-54.9111 95.3574c0.536133 1.60742 0.804688 3.21387 0.804688 4.82129c0 7.23145 -5.09082 13.3926 -12.0547 14.7314l-51.6963 90.2686
c0.535156 1.33887 0.802734 2.67773 0.802734 4.28516c0 8.30371 -6.69727 15.2676 -15.2686 15.2676c-4.28516 0 -8.30371 -1.875 -10.9814 -4.82129h-107.144c-2.67871 3.21484 -6.96484 5.35742 -11.5176 5.35742c-4.55371 0 -8.83887 -2.14258 -11.5166 -5.35645
h-106.875c-2.67969 3.21484 -6.69727 5.35742 -11.5195 5.35742c-8.30371 0 -15.2676 -6.69727 -15.2676 -15.2676c0 -1.875 0.535156 -3.75 1.07031 -5.35742l-51.6963 -89.7324c-6.96484 -1.33887 -12.0547 -7.5 -12.0547 -14.7314
c0 -1.875 0.268555 -3.21387 0.804688 -4.82129l-55.1797 -95.3574c-6.96484 -1.60742 -12.0537 -7.76855 -12.0537 -15c0 -7.5 5.3584 -13.6611 12.5898 -15l53.3047 -92.1436c0 -0.536133 -0.268555 -1.07227 -0.268555 -1.60645
c0 -6.16113 3.75098 -11.251 9.10742 -13.6611l55.9824 -97.2334c-0.536133 -1.33887 -1.07129 -3.21387 -1.07129 -4.82129c0 -8.57129 6.96484 -15.2676 15.2676 -15.2676c4.82227 0 8.83887 2.14258 11.7861 5.625h106.071
c2.67871 -3.48242 6.69629 -5.625 11.5176 -5.625s8.83887 2.14258 11.5176 5.62402h106.606c2.94727 -3.48242 6.96484 -5.625 11.7861 -5.625c8.30371 0 15.2676 6.69727 15.2676 15.2676c0 1.60742 -0.535156 3.21484 -1.07031 4.82129l55.4463 95.8936
c8.03613 0.267578 14.7324 6.96484 14.7324 15.001c0 2.67871 -0.803711 5.08984 -1.875 7.23145zM153.535 450.732v-75.8037h-43.6602zM153.535 366.893v-50.624l-44.999 47.4102c0.535156 1.07227 1.07129 2.14355 1.33887 3.21387h43.6602v0zM153.535 304.482
l0.000976562 -92.9463l-50.0889 -51.9648c-2.41113 1.60645 -5.08887 2.41113 -7.76855 2.67871l-51.9648 90c0.268555 1.07227 0.268555 2.14258 0.268555 3.48242c0 1.33887 0 2.67871 -0.535156 4.01758l55.7129 96.4287
c1.33887 0.267578 2.67871 1.07129 4.01758 1.60742zM153.535 202.16v-72.0527l-43.9277 15.8037c0 0.267578 0.267578 0.803711 0.267578 1.07227c0 2.94531 -0.803711 5.62402 -2.14258 7.7666zM153.535 121.535v-59.7324l-43.6602 75.5361zM480.054 160.643
l-0.267578 -0.267578l-98.0361 101.519l63.75 67.2324l35.3584 -167.144zM291.75 355.107l-11.25 11.7852h22.7676zM291.482 343.857l79.2852 -82.2324l-83.0352 -87.5889l-79.5537 84.375zM296.839 349.75l16.875 17.1426h124.021l5.8916 -28.125l-67.5 -71.25z
M410.411 44.3926l-117.053 124.02l83.0342 87.5889l97.5 -101.25c-1.33984 -2.14258 -2.14258 -4.82129 -2.14258 -7.7666v-0.536133l-57.8574 -100.714c-1.33984 -0.268555 -2.41016 -0.804688 -3.48145 -1.34082v-0.000976562zM401.304 42.25h-4.28711l-166.339 60
l57.0547 60.2676zM277.821 42.25h-103.93l50.8936 53.5713l148.394 -53.5713h-75c-2.67871 2.67773 -6.16016 4.28516 -10.1787 4.28516s-7.50098 -1.60742 -10.1787 -4.28516v0zM161.572 47.875v70.7148l54.9111 -19.8213l-51.1611 -53.8398
c-0.730469 0.25293 -1.93066 0.613281 -2.67969 0.804688zM161.572 127.161v83.3037l40.9814 42.0527l79.5537 -84.1064l-59.7324 -63.2139zM161.572 219.839v76.0723l36.4277 -38.3037zM161.572 307.697v59.1953h107.678l17.1426 -17.6777l-82.7676 -85.9814z
M168.536 469.75h1.33887l91.6074 -94.8213h-99.9102v89.7324l1.07031 1.60645c2.41113 0.804688 4.28613 1.875 5.89355 3.48242v0zM298.447 469.75h104.193l-91.6064 -94.8213h-38.3037l-91.6074 94.8213h96.4287c2.68066 -2.41016 6.42871 -4.28516 10.4473 -4.28516
c4.01953 0 7.76758 1.875 10.4482 4.28516v0zM418.447 457.964l17.4121 -83.0361h-114.376l89.1953 91.875c1.07227 -0.536133 2.14355 -1.07031 3.48242 -1.33887zM431.303 435.732l34.8223 -60.8037h-21.9639zM466.125 366.893
c0.267578 -1.07129 0.803711 -2.14258 1.33887 -2.94531l-17.1426 -18.2139l-4.55371 21.1592h20.3574v0zM532.286 259.482c-0.268555 -1.33984 -0.536133 -2.41113 -0.536133 -3.75c0 -1.60742 0.536133 -2.94629 0.802734 -4.28516l-45.8027 -79.2861l-34.5537 163.928
l20.625 21.9639c1.33887 -0.802734 2.67871 -1.33887 4.01758 -1.87402z" />
</svg>
