<?xml version="1.0" standalone="no"?>
<!DOCTYPE svg PUBLIC "-//W3C//DTD SVG 20010904//EN"
 "http://www.w3.org/TR/2001/REC-SVG-20010904/DTD/svg10.dtd">
<svg version="1.0" xmlns="http://www.w3.org/2000/svg"
 width="41.000000pt" height="96.000000pt" viewBox="0 0 41.000000 96.000000"
 preserveAspectRatio="xMidYMid meet">

<g transform="translate(0.000000,96.000000) scale(0.100000,-0.100000)"
fill="#000000" stroke="none">
<path d="M2 913 c5 -53 26 -103 63 -147 l24 -30 36 20 c48 25 51 31 23 54
l-23 19 80 0 80 0 -30 -25 c-16 -14 -49 -34 -72 -44 -60 -27 -132 -97 -159
-155 -46 -98 -27 -235 44 -325 l20 -24 37 19 c48 26 51 32 23 55 l-23 19 78 1
79 0 -29 -24 c-15 -13 -48 -33 -71 -45 -99 -50 -182 -160 -182 -241 l0 -35
205 0 205 0 0 26 c0 43 -30 115 -63 154 l-32 37 -38 -22 c-43 -26 -45 -32 -14
-53 21 -15 18 -16 -58 -16 l-80 0 30 24 c17 14 53 36 82 50 67 33 137 111 159
177 32 97 3 238 -62 299 l-23 21 -33 -23 c-18 -12 -35 -24 -38 -26 -3 -3 6
-13 20 -23 l25 -20 -79 0 c-76 0 -78 1 -63 18 10 10 46 33 82 51 108 54 185
162 185 258 0 21 -5 23 -45 23 -25 0 -45 -4 -45 -10 0 -6 -45 -10 -114 -10
-66 0 -117 4 -121 10 -3 6 -24 10 -47 10 l-41 0 5 -47z m313 -23 c-3 -6 -52
-10 -110 -10 -58 0 -107 4 -110 10 -4 6 35 10 110 10 75 0 114 -4 110 -10z
m-5 -340 c0 -6 -44 -10 -111 -10 -71 0 -108 4 -104 10 3 6 52 10 111 10 63 0
104 -4 104 -10z m10 -72 c0 -10 -29 -12 -120 -10 -66 2 -120 7 -120 13 0 5 52
9 120 9 89 0 120 -3 120 -12z m-5 -68 c-3 -6 -52 -10 -110 -10 -58 0 -107 4
-110 10 -4 6 35 10 110 10 75 0 114 -4 110 -10z m-5 -340 c0 -6 -44 -10 -111
-10 -71 0 -108 4 -104 10 3 6 52 10 111 10 63 0 104 -4 104 -10z"/>
</g>
</svg>
