<?xml version="1.0" encoding="utf-8"?>
<!DOCTYPE svg PUBLIC "-//W3C//DTD SVG 20010904//EN" "http://www.w3.org/TR/2001/REC-SVG-20010904/DTD/svg10.dtd">
<svg version="1.0" xmlns="http://www.w3.org/2000/svg" width="48px" height="54px" viewBox="0 0 48 54" preserveAspectRatio="xMidYMid meet">
 <g fill="#000000">
  <path d="M14 38.15 c0 -0.55 8.50 -29.80 9 -31 0.40 -0.95 0.85 -1.15 2.70 -1.15 1.25 0 2.35 0.20 2.50 0.40 0.15 0.25 -1.75 7.25 -4.25 15.65 -2.45 8.35 -4.45 15.45 -4.45 15.80 0 0.45 -0.85 0.65 -2.75 0.65 -1.50 0 -2.75 -0.15 -2.75 -0.35z"/>
  <path d="M32.75 30.35 c-3 -1.70 -4.25 -3.90 -4.25 -7.45 0 -1.60 0.30 -3.55 0.70 -4.30 2.95 -5.65 10.40 -6.70 15.05 -2.10 1.85 1.85 2 2.15 2.15 5.50 0.20 3.15 0.05 3.75 -1.10 5.50 -2.55 3.90 -8.35 5.20 -12.55 2.85z m7.50 -3.50 c2.70 -2.30 1.90 -8.05 -1.30 -9.35 -3.95 -1.65 -7.45 3.70 -5.20 8 1.40 2.70 4.25 3.30 6.50 1.35z"/>
  <path d="M3.25 29.90 c-0.10 -0.35 -0.15 -4.60 -0.10 -9.40 0.10 -8.75 0.10 -8.75 3.25 -8.75 3.15 0 3.15 0 3.15 9.25 0.05 9.25 0.05 9.25 -3 9.40 -2.15 0.10 -3.15 -0.05 -3.30 -0.50z"/>
 </g>
</svg>