<?xml version="1.0" encoding="utf-8"?>
<!DOCTYPE svg PUBLIC "-//W3C//DTD SVG 20010904//EN" "http://www.w3.org/TR/2001/REC-SVG-20010904/DTD/svg10.dtd">
<svg version="1.0" xmlns="http://www.w3.org/2000/svg" width="48px" height="48px" viewBox="0 0 48 48" preserveAspectRatio="xMidYMid meet">
 <g fill="#000000">
  <path d="M35.60 47.35 c-0.30 -0.35 -0.60 -1.60 -0.70 -2.80 -0.15 -2.20 -0.15 -2.20 -6.70 -2.10 -5.55 0.10 -6.60 0 -7.20 -0.70 -0.55 -0.65 -0.65 -2.40 -0.55 -7.20 0.05 -3.50 -0.05 -6.95 -0.20 -7.70 -0.35 -1.35 -0.40 -1.40 -3.95 -1.25 -3.55 0.15 -3.55 0.15 -3.40 3.10 0.05 1.65 -0.15 3.25 -0.45 3.60 -0.40 0.50 -2 0.70 -5.70 0.70 -2.85 0 -5.50 -0.15 -5.95 -0.30 -0.70 -0.25 -0.80 -1.50 -0.80 -8.70 0 -7.50 0.10 -8.45 0.90 -8.75 0.45 -0.20 3.20 -0.35 6.05 -0.40 6 0 6.15 0.10 5.95 4.15 -0.15 2.75 -0.15 2.75 3.60 2.75 3.75 0 3.75 0 3.80 -7.30 0 -4 0.20 -7.65 0.35 -8.15 0.30 -0.70 1.30 -0.80 7.35 -0.80 7 0 7 0 7 -1.95 0 -3.55 0 -3.55 6.10 -3.55 4.05 0 5.65 0.20 6.20 0.70 0.50 0.55 0.70 2.10 0.70 6 0 6.25 0.45 5.90 -7.50 5.70 -5.25 -0.15 -5.25 -0.15 -5.50 -1.65 -0.25 -1.50 -0.25 -1.50 -5.65 -1.65 -5.35 -0.15 -5.35 -0.15 -5.35 6.40 0 6.55 0 6.55 5.40 6.40 5.35 -0.15 5.35 -0.15 5.50 -2.40 0.10 -1.20 0.45 -2.40 0.75 -2.60 1.05 -0.70 10.50 -0.45 11.50 0.30 0.75 0.55 0.85 1.55 0.85 6.95 0 7.50 0.55 6.95 -7.50 6.75 -5.25 -0.15 -5.25 -0.15 -5.50 -2.65 -0.25 -2.50 -0.25 -2.50 -5.60 -2.65 -5.40 -0.15 -5.40 -0.15 -5.40 6.40 0 6.50 0 6.50 5.45 6.50 5.50 0 5.50 0 5.65 -1.60 0.15 -1.65 0.15 -1.65 5.85 -1.80 3.75 -0.10 5.90 0.05 6.35 0.45 0.50 0.40 0.70 1.90 0.70 5.50 0 4.30 -0.15 5.10 -1 5.95 -0.85 0.85 -1.65 1 -5.95 1 -3.35 0 -5.10 -0.20 -5.45 -0.65z"/>
 </g>
</svg>