<?xml version="1.0" standalone="no"?>
<!DOCTYPE svg PUBLIC "-//W3C//DTD SVG 20010904//EN"
 "http://www.w3.org/TR/2001/REC-SVG-20010904/DTD/svg10.dtd">
<svg version="1.0" xmlns="http://www.w3.org/2000/svg"
 width="936.000000pt" height="936.000000pt" viewBox="0 0 936.000000 936.000000"
 preserveAspectRatio="xMidYMid meet">
<metadata>
Created by potrace 1.11, written by Peter Selinger 2001-2013
</metadata>
<g transform="translate(0.000000,936.000000) scale(0.100000,-0.100000)"
fill="#000000" stroke="none">
<path d="M7854 7688 c-10 -29 -19 -57 -20 -63 -1 -5 -19 -62 -40 -125 -21 -63
-38 -117 -39 -120 -24 -94 -46 -144 -63 -146 -64 -5 -589 -200 -662 -245 -8
-5 -22 -12 -30 -15 -34 -12 -211 -99 -290 -142 -47 -26 -88 -46 -92 -45 -3 2
-12 -4 -18 -12 -7 -8 -16 -15 -20 -15 -4 0 -43 -20 -86 -44 -44 -24 -101 -56
-129 -71 -49 -27 -214 -120 -247 -140 -9 -5 -43 -25 -75 -44 -74 -42 -391
-254 -418 -278 -11 -10 -52 -44 -92 -75 -130 -105 -321 -289 -505 -489 -128
-139 -140 -153 -199 -234 -51 -71 -73 -86 -95 -67 -5 5 -38 14 -74 20 -36 7
-78 15 -95 18 -38 8 -327 13 -339 7 -4 -3 -28 -7 -52 -9 -24 -2 -72 -11 -106
-20 -35 -9 -67 -17 -73 -19 -5 -1 -23 -7 -40 -14 -268 -104 -437 -276 -540
-551 -1 -3 -4 -12 -7 -20 -5 -13 -14 -46 -34 -135 -17 -71 -24 -346 -11 -435
4 -25 9 -59 11 -77 3 -17 10 -51 17 -75 7 -24 13 -45 14 -48 5 -24 32 -90 56
-141 122 -251 355 -428 634 -483 84 -17 129 -24 156 -25 12 -1 18 -15 23 -51
4 -27 7 -53 8 -57 0 -5 11 -46 25 -93 13 -47 26 -96 29 -110 22 -101 178 -400
271 -520 152 -196 254 -308 377 -415 32 -27 63 -55 69 -61 7 -5 46 -35 87 -64
41 -30 77 -58 78 -62 2 -5 9 -8 16 -8 7 0 21 -8 32 -18 11 -9 37 -26 59 -37
21 -11 44 -25 50 -32 19 -18 318 -163 343 -165 22 -3 27 6 57 95 18 54 33 101
34 105 8 46 95 294 104 297 7 2 66 20 132 41 66 21 122 38 125 38 3 1 10 4 15
7 6 4 35 14 65 24 30 10 78 29 107 41 28 13 54 24 57 24 20 0 388 177 519 249
29 15 93 50 142 76 50 26 106 58 126 71 20 13 40 20 43 17 3 -4 6 -1 6 5 0 7
5 12 11 12 6 0 36 15 67 34 32 18 125 73 207 122 142 84 324 200 335 213 3 4
19 15 35 25 39 25 217 167 275 220 24 23 103 98 175 169 107 105 131 124 137
110 4 -10 45 -76 91 -148 l83 -130 255 0 255 0 -1 744 c0 703 1 747 18 786 46
100 96 255 121 375 3 14 6 27 6 30 7 27 22 118 28 170 9 82 8 478 -2 545 -19
133 -28 180 -51 270 -58 223 -159 427 -314 635 -30 41 -58 77 -61 80 -3 3 -37
44 -77 91 -141 167 -314 316 -533 456 -123 78 -405 223 -435 223 -2 0 -11 -24
-21 -52z m528 -875 c90 -79 117 -105 172 -160 33 -34 77 -80 96 -103 19 -23
41 -49 49 -57 29 -30 180 -238 176 -242 -4 -3 -308 120 -480 194 -54 23 -528
220 -645 267 -23 10 -19 12 45 29 39 10 84 21 100 24 17 3 75 14 130 25 55 10
118 21 141 25 22 3 60 9 85 14 65 12 106 7 131 -16z m-1389 -388 c44 -19 86
-35 94 -35 7 0 13 -5 13 -12 0 -6 2 -9 6 -6 4 5 88 -27 189 -71 70 -31 96 -42
145 -61 57 -22 82 -33 162 -69 26 -11 50 -21 53 -21 3 0 27 -9 53 -21 26 -12
58 -26 72 -31 14 -6 36 -16 50 -23 14 -7 27 -13 30 -13 5 -1 22 -7 110 -42 57
-23 84 -34 162 -69 26 -11 50 -21 53 -21 3 0 24 -9 48 -19 23 -10 121 -51 217
-91 96 -40 189 -78 205 -85 17 -7 98 -41 180 -75 83 -34 168 -70 190 -80 22
-9 57 -23 78 -30 20 -6 38 -17 38 -23 1 -7 3 -21 4 -32 2 -11 6 -56 9 -101 l6
-80 -208 0 c-226 1 -278 -3 -274 -23 1 -7 -1 -10 -6 -7 -8 5 -58 26 -72 31 -3
1 -16 6 -30 12 -14 6 -47 20 -75 31 -27 11 -68 28 -90 38 -22 10 -42 18 -45
19 -3 1 -16 6 -30 12 -14 6 -131 54 -260 108 -129 53 -248 102 -265 110 -16 7
-59 25 -95 39 -75 31 -88 36 -152 65 -26 12 -50 21 -52 21 -5 0 -165 66 -266
110 -25 11 -112 47 -195 81 -82 33 -163 67 -180 74 -35 16 -388 163 -424 176
-23 9 -24 10 -5 23 34 24 310 163 360 182 27 10 51 21 54 25 4 6 30 15 53 18
5 0 45 -15 90 -34z m-1129 -575 c26 -11 48 -19 51 -19 3 -1 20 -8 38 -18 17
-9 37 -18 42 -19 6 -2 109 -44 230 -94 121 -51 274 -114 340 -142 66 -27 134
-55 150 -63 17 -7 55 -23 85 -35 69 -27 119 -49 144 -62 10 -5 26 -11 35 -13
9 -2 101 -40 206 -84 l189 -80 1 -230 c0 -127 -1 -231 -2 -231 -4 0 -107 41
-143 57 -75 33 -97 42 -150 63 -30 12 -68 28 -85 35 -55 25 -219 92 -258 106
-21 7 -44 20 -50 28 -7 8 -32 70 -57 139 l-46 126 -279 1 -280 1 -317 133
-317 133 110 84 c61 46 112 84 114 84 1 0 42 27 91 60 48 33 93 60 100 60 7 0
33 -9 58 -20z m-679 -785 c22 -9 49 -21 60 -26 11 -4 61 -25 110 -45 50 -20
108 -44 130 -54 22 -9 72 -30 110 -45 39 -16 93 -38 120 -50 28 -12 57 -25 66
-28 14 -4 4 -38 -63 -219 -44 -117 -81 -215 -83 -216 -2 -2 -18 3 -37 11 -18
8 -69 29 -113 47 -107 45 -97 33 -111 130 -16 114 -81 289 -138 373 -14 21
-26 40 -26 42 0 3 -8 13 -17 23 -48 50 -77 91 -55 79 4 -2 25 -12 47 -22z
m-756 -109 c63 -6 121 -24 121 -39 0 -6 -14 -48 -30 -93 -28 -74 -77 -248 -85
-299 -1 -11 -11 -38 -20 -60 -27 -61 -38 -89 -41 -100 -1 -5 -8 -23 -15 -40
-14 -33 -20 -54 -21 -72 -1 -7 -4 -13 -8 -13 -4 0 -7 -6 -7 -12 0 -7 -10 -51
-21 -98 -29 -116 -49 -244 -55 -357 -1 -24 -3 -43 -5 -43 -2 0 -28 12 -59 27
-93 43 -166 130 -222 263 -59 142 -62 451 -6 618 44 128 126 231 220 278 53
25 73 31 140 40 22 3 41 7 44 9 2 3 7 2 11 0 4 -3 31 -7 59 -9z m267 -140 c8
-8 14 -19 14 -25 0 -6 4 -11 9 -11 5 0 11 -7 15 -15 4 -12 -1 -12 -37 2 -53
21 -51 18 -37 42 13 25 17 26 36 7z m3667 -5 c23 -10 103 -44 177 -74 l135
-56 2 -86 c1 -48 4 -89 7 -92 3 -3 1 -14 -5 -24 -7 -14 -6 -19 3 -19 8 0 9 -3
1 -11 -6 -6 -8 -23 -3 -44 4 -19 5 -36 2 -39 -3 -3 -5 -32 -4 -63 0 -32 -2
-51 -6 -43 -4 8 -29 49 -56 90 -26 41 -61 95 -77 120 -16 25 -32 50 -36 56
-20 26 -34 50 -39 67 -4 9 -10 17 -14 17 -5 0 -12 10 -16 23 -4 12 -10 24 -13
27 -11 8 -111 170 -106 170 3 0 24 -8 48 -19z m-2056 -211 c7 0 17 -9 23 -20
6 -11 8 -20 4 -20 -3 0 -2 -6 3 -12 8 -10 58 -148 70 -193 1 -5 20 -60 41
-122 l40 -112 -117 1 c-104 0 -124 4 -191 30 -41 16 -79 33 -83 37 -6 6 82
278 138 428 3 9 11 9 32 -2 15 -8 33 -15 40 -15z m1588 -20 c-3 -4 2 -13 10
-20 24 -20 17 -31 -10 -18 -18 8 -25 19 -25 41 0 25 2 28 15 17 8 -7 13 -16
10 -20z m-724 -339 l204 -84 0 -249 c0 -136 -2 -248 -5 -248 -3 0 -50 19 -106
42 l-101 42 -57 156 c-32 85 -67 180 -78 210 -11 30 -24 64 -28 75 -5 11 -14
38 -21 60 -7 22 -17 44 -21 50 -11 12 -10 37 1 33 5 -1 101 -41 212 -87z
m-2613 -17 c48 -20 101 -42 117 -49 17 -7 54 -23 83 -35 28 -12 52 -25 52 -29
0 -20 -26 -94 -51 -146 -33 -69 -108 -159 -150 -180 -26 -14 -33 -13 -79 7
-27 12 -52 29 -55 37 -16 53 -24 431 -9 431 3 0 45 -16 92 -36z m3398 -309
c33 -14 67 -30 76 -35 10 -6 22 -10 28 -10 5 0 39 -13 75 -30 36 -16 72 -30
80 -30 24 0 25 -16 2 -36 -20 -17 -80 -64 -219 -169 -25 -19 -50 -35 -54 -35
-4 0 -22 -11 -41 -26 l-33 -25 0 210 c0 172 3 211 14 211 7 0 40 -11 72 -25z
m-2571 -35 c24 -11 46 -24 49 -28 3 -5 -13 -56 -35 -113 -22 -57 -42 -111 -44
-119 -2 -8 -4 -16 -4 -17 -1 -2 -1 -4 -1 -5 -1 -13 -50 -123 -55 -122 -15 1
-195 79 -195 84 0 3 21 27 45 54 58 63 108 139 146 221 17 36 35 65 40 65 6 0
30 -9 54 -20z m591 -245 c33 -14 68 -30 79 -35 11 -5 72 -30 135 -56 63 -25
129 -52 145 -59 17 -8 179 -75 360 -150 182 -75 346 -143 365 -152 19 -8 44
-19 55 -23 67 -26 80 -33 63 -37 -10 -3 -18 -9 -18 -14 0 -5 -9 -9 -19 -9 -11
0 -21 -4 -23 -8 -1 -5 -73 -42 -158 -84 -249 -121 -261 -126 -293 -106 -12 8
-44 22 -72 33 -27 10 -68 26 -90 36 -22 9 -80 34 -130 54 -49 20 -103 43 -120
50 -16 7 -106 45 -200 83 -93 39 -208 87 -255 107 -47 20 -93 38 -103 40 -59
13 -46 33 21 31 31 -2 62 -1 69 2 7 2 33 67 59 145 45 136 61 177 68 177 2 0
30 -11 62 -25z m-1200 -544 c5 -4 45 -23 89 -41 44 -17 94 -38 110 -45 17 -8
125 -53 240 -100 116 -48 224 -93 240 -100 17 -8 108 -46 204 -85 96 -39 185
-77 199 -84 24 -13 24 -13 -19 -21 -24 -4 -46 -9 -49 -10 -6 -2 -107 -24 -140
-30 -14 -3 -36 -7 -50 -10 -14 -3 -34 -7 -45 -9 -27 -5 -211 -34 -255 -40 -28
-4 -42 1 -80 31 -71 57 -330 322 -330 339 0 2 -8 12 -17 22 -10 11 -27 32 -38
47 -11 16 -30 41 -42 56 -13 15 -23 32 -23 38 0 6 -4 11 -10 11 -5 0 -10 6
-10 14 0 8 -6 17 -12 19 -7 3 -4 6 8 6 11 1 24 -3 30 -8z"/>
<path d="M768 5345 c-2 -2 -26 -6 -53 -9 -165 -17 -359 -89 -469 -175 -36 -28
-136 -126 -136 -133 0 -4 -11 -23 -24 -43 -73 -107 -91 -297 -45 -465 11 -40
72 -144 106 -181 70 -75 179 -139 323 -188 36 -12 72 -25 80 -28 8 -3 24 -7
36 -8 11 -2 38 -8 60 -14 21 -5 50 -12 64 -15 112 -22 138 -27 158 -31 12 -3
32 -7 43 -10 159 -34 241 -99 232 -181 -10 -97 -88 -145 -258 -161 -158 -14
-280 1 -447 57 -93 31 -268 117 -268 131 0 4 -8 10 -18 13 -10 4 -28 15 -40
27 -14 12 -38 21 -65 22 l-42 2 -2 -251 -1 -251 36 -12 c21 -7 46 -16 57 -21
44 -18 159 -54 205 -65 3 0 28 -6 55 -13 28 -6 64 -14 80 -16 17 -2 30 -5 30
-6 0 -3 75 -10 164 -14 51 -3 96 -7 99 -10 3 -3 11 -1 18 5 9 7 19 7 32 0 11
-6 22 -8 25 -5 3 3 45 7 94 10 48 2 99 6 113 9 14 3 39 8 55 11 17 2 48 10 70
15 22 6 47 12 56 14 8 2 33 11 55 21 21 9 44 18 51 19 37 9 168 100 228 160
153 153 204 348 151 575 -18 76 -86 176 -167 246 -50 42 -216 124 -283 139
-12 3 -46 12 -76 20 -30 9 -64 18 -75 21 -11 2 -29 6 -40 8 -11 3 -74 16 -140
30 -264 56 -326 91 -328 184 -1 65 64 132 143 147 11 2 23 6 28 8 27 17 198
24 294 12 50 -6 70 -10 158 -33 52 -13 211 -82 239 -104 13 -10 30 -18 37 -18
8 0 14 -4 14 -8 0 -16 66 -47 103 -48 l37 -1 1 166 c0 91 0 196 1 233 0 37 -3
71 -6 76 -8 13 -104 47 -206 72 -130 33 -143 36 -210 45 -25 3 -58 8 -75 11
-35 6 -351 14 -357 9z"/>
<path d="M1873 5312 c-29 -3 -33 -7 -34 -35 -1 -18 0 -36 1 -42 5 -20 1 -115
-4 -124 -4 -5 -3 -12 2 -15 4 -2 5 -31 2 -63 -3 -32 -3 -71 0 -88 4 -16 3 -41
0 -55 -4 -14 -4 -34 0 -45 4 -11 4 -30 -1 -42 -5 -13 -5 -23 -1 -23 4 0 6 -28
4 -62 -3 -71 -3 -78 -2 -170 1 -37 -1 -71 -4 -77 -4 -5 -2 -12 4 -16 6 -4 8
-10 5 -15 -5 -9 -7 -111 -3 -198 2 -28 0 -52 -3 -52 -3 0 -4 -15 -2 -32 6 -55
5 -157 -1 -167 -4 -5 -2 -12 3 -15 5 -3 6 -21 2 -39 -5 -18 -5 -41 -1 -52 4
-11 4 -30 -1 -42 -5 -13 -5 -23 -1 -23 4 0 7 -25 7 -55 0 -30 -3 -55 -6 -55
-3 0 -4 -15 -2 -32 6 -55 5 -157 -1 -167 -4 -5 -3 -12 2 -15 4 -2 5 -31 2 -63
-7 -72 -3 -90 18 -95 9 -2 334 -4 721 -3 l704 0 -1 190 c0 105 -1 198 -1 207
-1 16 -31 17 -388 17 -214 0 -417 1 -453 1 l-65 0 0 218 1 217 420 3 420 2 -2
203 c-1 111 -2 204 -3 207 0 3 -182 4 -403 3 -222 0 -410 1 -418 3 -13 3 -15
28 -15 149 l0 145 448 0 c412 0 448 1 454 17 6 15 8 159 3 173 -2 3 -1 10 0
15 7 32 3 198 -5 203 -9 6 -1342 10 -1402 4z"/>
</g>
</svg>
